<svg xmlns="http://www.w3.org/2000/svg" width="16.345" height="18" viewBox="0 0 16.345 18"><defs><style>.a{fill:#f16c69;}</style></defs><g transform="translate(0 3.309)"><path class="a" d="M39.15,94.127H24.259a.727.727,0,0,0,0,1.454H39.15a.727.727,0,0,0,0-1.454Z" transform="translate(-23.532 -94.127)"/></g><g transform="translate(1.655 3.309)"><g transform="translate(0)"><path class="a" d="M82.905,94.127a.727.727,0,0,0-.727.727v11.582a.928.928,0,0,1-.927.927H72.978a.928.928,0,0,1-.927-.927V94.854a.727.727,0,1,0-1.454,0v11.582a2.384,2.384,0,0,0,2.382,2.382h8.273a2.384,2.384,0,0,0,2.382-2.382V94.854A.727.727,0,0,0,82.905,94.127Z" transform="translate(-70.596 -94.127)"/></g></g><g transform="translate(4.136)"><g transform="translate(0)"><path class="a" d="M146.882,0h-3.309a2.384,2.384,0,0,0-2.382,2.382V4.036a.727.727,0,0,0,1.454,0V2.382a.929.929,0,0,1,.927-.927h3.309a.928.928,0,0,1,.927.927V4.036a.727.727,0,0,0,1.454,0V2.382A2.384,2.384,0,0,0,146.882,0Z" transform="translate(-141.191)"/></g></g><g transform="translate(5.791 7.446)"><g transform="translate(0)"><path class="a" d="M188.981,211.786a.727.727,0,0,0-.727.727v4.964a.727.727,0,1,0,1.454,0v-4.964A.727.727,0,0,0,188.981,211.786Z" transform="translate(-188.254 -211.786)"/></g></g><g transform="translate(9.1 7.446)"><g transform="translate(0)"><path class="a" d="M283.109,211.786a.727.727,0,0,0-.727.727v4.964a.727.727,0,1,0,1.454,0v-4.964A.727.727,0,0,0,283.109,211.786Z" transform="translate(-282.382 -211.786)"/></g></g></svg>