<svg xmlns="http://www.w3.org/2000/svg" width="18" height="18" viewBox="0 0 18 18"><defs><style>.a{fill:#707070;}</style></defs><g transform="translate(0 1.655)"><path class="a" d="M15.618,55.884a.727.727,0,0,0-.727.727v4.418a.929.929,0,0,1-.927.927H2.382a.929.929,0,0,1-.927-.927V49.447a.929.929,0,0,1,.927-.927H6.8a.727.727,0,0,0,0-1.454H2.382A2.384,2.384,0,0,0,0,49.447V61.029A2.384,2.384,0,0,0,2.382,63.41H13.964a2.384,2.384,0,0,0,2.382-2.382V56.611A.727.727,0,0,0,15.618,55.884Z" transform="translate(0 -47.065)"/></g><g transform="translate(4.964)"><path class="a" d="M154.014,3.522,150.705.213a.727.727,0,0,0-1.028,0L141.4,8.486a.727.727,0,0,0-.213.514v3.309a.727.727,0,0,0,.727.727h3.309a.727.727,0,0,0,.514-.213l8.273-8.273a.727.727,0,0,0,0-1.028Zm-9.088,8.06h-2.281V9.3l7.546-7.546,2.281,2.281Z" transform="translate(-141.191 0)"/></g></svg>