<svg xmlns="http://www.w3.org/2000/svg" width="18.15" height="18.151" viewBox="0 0 18.15 18.151"><defs><style>.a{fill:#707070;}</style></defs><g transform="translate(0 3.241)"><path class="a" d="M12.965,91.428H1.945A1.945,1.945,0,0,0,0,93.373v11.02a1.945,1.945,0,0,0,1.945,1.945h11.02a1.945,1.945,0,0,0,1.945-1.945V93.373A1.945,1.945,0,0,0,12.965,91.428Zm.648,12.965a.648.648,0,0,1-.648.648H1.945a.648.648,0,0,1-.648-.648V93.373a.648.648,0,0,1,.648-.648h11.02a.648.648,0,0,1,.648.648Z" transform="translate(0 -91.428)"/></g><g transform="translate(2.593)"><path class="a" d="M86.756,0H75.088a1.945,1.945,0,0,0-1.945,1.945.648.648,0,1,0,1.3,0,.648.648,0,0,1,.648-.648H86.756a.648.648,0,0,1,.648.648V13.613a.648.648,0,0,1-.648.648.648.648,0,0,0,0,1.3A1.945,1.945,0,0,0,88.7,13.613V1.945A1.945,1.945,0,0,0,86.756,0Z" transform="translate(-73.143)"/></g></svg>